<?xml version="1.0" standalone="no"?>
<!DOCTYPE svg PUBLIC "-//W3C//DTD SVG 20010904//EN"
 "http://www.w3.org/TR/2001/REC-SVG-20010904/DTD/svg10.dtd">
<svg version="1.0" xmlns="http://www.w3.org/2000/svg"
 width="512.000000pt" height="512.000000pt" viewBox="0 0 512.000000 512.000000"
 preserveAspectRatio="xMidYMid meet">
<g transform="translate(0.000000,512.000000) scale(0.100000,-0.100000)"
fill="#000000" stroke="none">
<path d="M1350 3840 c-8 -5 -35 -10 -60 -10 -25 0 -57 -7 -70 -15 -14 -8 -42
-15 -62 -15 -21 0 -44 -6 -53 -14 -9 -7 -29 -16 -45 -19 -37 -8 -200 -170
-200 -198 0 -12 -9 -33 -20 -49 -11 -15 -23 -51 -26 -80 -4 -29 -11 -64 -16
-78 -8 -22 -5 -34 21 -76 l31 -49 0 -674 c0 -630 1 -675 18 -689 9 -9 31 -17
48 -19 17 -2 32 -8 34 -13 2 -6 30 -12 62 -14 33 -2 68 -8 79 -13 27 -14 1756
-14 1765 0 4 6 19 10 34 10 37 0 92 39 115 80 17 31 20 56 20 170 0 129 -1
137 -27 177 -34 53 -81 83 -144 93 -27 4 -57 13 -66 19 -11 8 -31 11 -54 7
-22 -3 -67 -1 -102 4 -34 6 -95 10 -135 10 -40 0 -79 5 -86 10 -13 10 -10 69
8 123 3 10 8 27 10 37 7 29 103 185 117 188 6 2 13 10 15 18 2 8 13 26 25 40
12 14 23 31 25 38 2 7 11 17 20 21 9 5 16 13 16 18 0 5 18 40 40 76 22 37 40
72 40 78 0 5 4 10 9 10 5 0 12 11 15 25 4 14 12 25 17 25 6 0 8 4 5 9 -3 5
-1 11 5 15 5 3 24 43 41 88 18 46 36 83 41 83 5 0 7 7 3 15 -3 8 -1 15 4 15 6
0 10 7 10 15 0 8 4 15 10 15 5 0 9 3 9 8 -2 11 13 62 19 62 4 0 7 8 8 17 0 10
9 34 19 53 10 19 15 37 12 40 -3 3 -1 11 4 18 10 12 59 150 59 164 0 3 5 13
10 21 6 8 16 37 23 64 7 28 16 65 21 83 10 35 7 42 -29 91 -12 15 -27 27 -35
27 -7 0 -33 9 -57 20 -24 11 -62 20 -85 20 -22 0 -54 7 -70 15 -17 8 -64 15
-115 15 -48 0 -87 4 -88 9 0 6 -2 14 -3 19 -2 6 -3 16 -4 23 -3 54 -29 104
-73 139 -59 48 -133 61 -335 57 -146 -2 -190 -6 -225 -21 -35 -15 -52 -16 -90
-9 -26 5 -80 10 -120 11 -40 0 -98 7 -130 15 -31 7 -100 15 -151 16 -101 3
-104 4 -104 51 0 19 -42 73 -75 96 -16 11 -47 25 -69 30 -23 6 -54 17 -70 26
-15 8 -119 26 -231 40 -112 14 -226 28 -252 31 -48 5 -53 4 -68 -17z"/>
</g>
</svg>