<?xml version="1.0" encoding="UTF-8"?>
<svg width="200px" height="200px" viewBox="0 0 200 200" version="1.1" xmlns="http://www.w3.org/2000/svg">
    <title>Arkana HR</title>
    <g stroke="none" stroke-width="1" fill="none" fill-rule="evenodd">
        <circle fill="#38B2AC" cx="100" cy="100" r="80"></circle>
        <path d="M100,40 C133.137,40 160,66.8629 160,100 C160,133.137 133.137,160 100,160 C66.8629,160 40,133.137 40,100 C40,66.8629 66.8629,40 100,40 Z M100,60 C77.9086,60 60,77.9086 60,100 C60,122.091 77.9086,140 100,140 C122.091,140 140,122.091 140,100 C140,77.9086 122.091,60 100,60 Z" fill="#FFFFFF" fill-rule="nonzero"></path>
        <path d="M100,70 C116.568,70.0032891 130,83.4315 130,100 C130,116.569 116.568,129.997 100,130 L100,110 C105.523,110 110,105.523 110,100 C110,94.4772 105.523,90 100,90 L100,70 Z" fill="#FFFFFF"></path>
    </g>
</svg>